<svg width="147" height="64" viewBox="0 0 147 64" fill="none" xmlns="http://www.w3.org/2000/svg">
<path d="M52 0L64.6667 12.8L55.1667 48.0001L70.9999 64L86.8333 48.0001L77.3333 12.8L90 0H52Z" fill="#003F7F"/>
<path d="M30.7748 11.2468V33.9707H26.2171V19.1904L20.1292 33.9707H16.6783L10.5578 19.1904V33.9707H6V11.2468H11.1763L18.4037 28.1432L25.631 11.2468H30.7748ZM52.5355 15.9348L41.3689 42.5002H36.5182L40.4248 33.5148L33.1974 15.9348H38.3087L42.9641 28.5338L47.6848 15.9348H52.5355Z" fill="#003F7F"/>
<path d="M95.2855 34.3842C93.5492 34.3842 91.9865 34.0044 90.5975 33.2447C89.2084 32.4634 88.1123 31.3674 87.3093 29.9566C86.528 28.5458 86.1373 26.9181 86.1373 25.0733C86.1373 23.2284 86.5389 21.6007 87.3419 20.1899C88.1666 18.7791 89.2843 17.6939 90.6951 16.9343C92.1059 16.153 93.6794 15.7623 95.4157 15.7623C97.152 15.7623 98.7257 16.153 100.137 16.9343C101.547 17.6939 102.654 18.7791 103.457 20.1899C104.282 21.6007 104.694 23.2284 104.694 25.0733C104.694 26.9181 104.271 28.5458 103.424 29.9566C102.6 31.3674 101.471 32.4634 100.039 33.2447C98.6275 34.0044 97.0436 34.3842 95.2855 34.3842ZM95.2855 30.4123C96.1103 30.4123 96.8807 30.217 97.5968 29.8264C98.335 29.4141 98.921 28.8063 99.3546 28.0033C99.7891 27.2002 100.006 26.2236 100.006 25.0733C100.006 23.3587 99.5498 22.0456 98.6387 21.134C97.7491 20.2008 96.6528 19.7342 95.3505 19.7342C94.0484 19.7342 92.9523 20.2008 92.0624 21.134C91.1943 22.0456 90.7602 23.3587 90.7602 25.0733C90.7602 26.7878 91.1835 28.1118 92.0299 29.045C92.898 29.9566 93.9832 30.4123 95.2855 30.4123ZM112.595 18.6923C113.181 17.8242 113.985 17.1188 115.004 16.5762C116.046 16.0337 117.229 15.7623 118.553 15.7623C120.094 15.7623 121.483 16.1422 122.72 16.9018C123.979 17.6614 124.966 18.7466 125.682 20.1574C126.42 21.5464 126.79 23.1633 126.79 25.0081C126.79 26.853 126.42 28.4916 125.682 29.9241C124.966 31.3348 123.979 32.4308 122.72 33.2122C121.483 33.9935 120.094 34.3842 118.553 34.3842C117.208 34.3842 116.025 34.1238 115.004 33.6028C114.006 33.0603 113.202 32.3658 112.595 31.5193V34.0912H108.038V10H112.595V18.6923ZM122.134 25.0081C122.134 23.9229 121.906 22.9897 121.45 22.2084C121.016 21.4053 120.431 20.7976 119.692 20.3852C118.977 19.9728 118.194 19.7667 117.349 19.7667C116.524 19.7667 115.742 19.9837 115.004 20.4178C114.288 20.8302 113.702 21.4379 113.246 22.2409C112.812 23.044 112.595 23.9881 112.595 25.0733C112.595 26.1585 112.812 27.1026 113.246 27.9056C113.702 28.7086 114.288 29.3272 115.004 29.7613C115.742 30.1737 116.524 30.3798 117.349 30.3798C118.194 30.3798 118.977 30.1628 119.692 29.7287C120.431 29.2946 121.016 28.6761 121.45 27.873C121.906 27.07 122.134 26.115 122.134 25.0081ZM134.268 30.3473H142.31V34.0912H129.092V30.4123L136.971 19.7992H129.125V16.0554H142.212V19.7342L134.268 30.3473Z" fill="black"/>
</svg>
